<mxfile host="app.diagrams.net" modified="2022-04-07T15:11:48.886Z" agent="5.0 (Macintosh; Intel Mac OS X 10_15_7) AppleWebKit/605.1.15 (KHTML, like Gecko) Version/15.4 Safari/605.1.15" etag="WZ06Ba15VIxQ2cwLQ-7W" version="17.4.0" type="github">
  <diagram id="C5RBs43oDa-KdzZeNtuy" name="Page-1">
    <mxGraphModel dx="523" dy="3697" grid="1" gridSize="10" guides="1" tooltips="1" connect="1" arrows="1" fold="1" page="1" pageScale="1" pageWidth="4681" pageHeight="3300" math="0" shadow="0">
      <root>
        <mxCell id="WIyWlLk6GJQsqaUBKTNV-0" />
        <mxCell id="WIyWlLk6GJQsqaUBKTNV-1" parent="WIyWlLk6GJQsqaUBKTNV-0" />
        <mxCell id="zkfFHV4jXpPFQw0GAbJ--0" value="all.h" style="swimlane;fontStyle=2;align=center;verticalAlign=top;childLayout=stackLayout;horizontal=1;startSize=26;horizontalStack=0;resizeParent=1;resizeLast=0;collapsible=1;marginBottom=0;rounded=0;shadow=0;strokeWidth=1;" parent="WIyWlLk6GJQsqaUBKTNV-1" vertex="1">
          <mxGeometry x="2274" y="-3300" width="160" height="60" as="geometry">
            <mxRectangle x="230" y="140" width="160" height="26" as="alternateBounds" />
          </mxGeometry>
        </mxCell>
        <mxCell id="zkfFHV4jXpPFQw0GAbJ--1" value="itensor/all_mps.h" style="text;align=left;verticalAlign=top;spacingLeft=4;spacingRight=4;overflow=hidden;rotatable=0;points=[[0,0.5],[1,0.5]];portConstraint=eastwest;" parent="zkfFHV4jXpPFQw0GAbJ--0" vertex="1">
          <mxGeometry y="26" width="160" height="26" as="geometry" />
        </mxCell>
        <mxCell id="EDpNB0EzXoPj7TMAPCz_-57" style="edgeStyle=orthogonalEdgeStyle;rounded=0;orthogonalLoop=1;jettySize=auto;html=1;entryX=0.821;entryY=-0.026;entryDx=0;entryDy=0;entryPerimeter=0;exitX=0.376;exitY=1;exitDx=0;exitDy=0;exitPerimeter=0;" edge="1" parent="WIyWlLk6GJQsqaUBKTNV-1" source="zkfFHV4jXpPFQw0GAbJ--7" target="EDpNB0EzXoPj7TMAPCz_-48">
          <mxGeometry relative="1" as="geometry" />
        </mxCell>
        <mxCell id="zkfFHV4jXpPFQw0GAbJ--6" value="itensor/all_mps.h" style="swimlane;fontStyle=0;align=center;verticalAlign=top;childLayout=stackLayout;horizontal=1;startSize=26;horizontalStack=0;resizeParent=1;resizeLast=0;collapsible=1;marginBottom=0;rounded=0;shadow=0;strokeWidth=1;" parent="WIyWlLk6GJQsqaUBKTNV-1" vertex="1">
          <mxGeometry x="2231" y="-3180" width="246" height="270" as="geometry">
            <mxRectangle x="130" y="380" width="160" height="26" as="alternateBounds" />
          </mxGeometry>
        </mxCell>
        <mxCell id="zkfFHV4jXpPFQw0GAbJ--7" value="#include &quot;itensor/all_basic.h&quot;&#xa;#include &quot;itensor/util/stats.h&quot;&#xa;#include &quot;itensor/mps/dmrg.h&quot;&#xa;#include &quot;itensor/mps/tevol.h&quot;&#xa;#include &quot;itensor/mps/autompo.h&quot;&#xa;#include &quot;itensor/mps/lattice/square.h&quot;&#xa;#include &quot;itensor/mps/lattice/triangular.h&quot;&#xa;#include &quot;itensor/mps/sites/spinhalf.h&quot;&#xa;#include &quot;itensor/mps/sites/spinone.h&quot;&#xa;#include &quot;itensor/mps/sites/spintwo.h&quot;&#xa;#include &quot;itensor/mps/sites/customspin.h&quot;&#xa;#include &quot;itensor/mps/sites/boson.h&quot;&#xa;#include &quot;itensor/mps/sites/electron.h&quot;&#xa;#include &quot;itensor/mps/sites/fermion.h&quot;&#xa;#include &quot;itensor/mps/sites/tj.h&quot;&#xa;#include &quot;itensor/mps/sites/Z3.h&quot;" style="text;align=left;verticalAlign=top;spacingLeft=4;spacingRight=4;overflow=hidden;rotatable=0;points=[[0,0.5],[1,0.5]];portConstraint=eastwest;" parent="zkfFHV4jXpPFQw0GAbJ--6" vertex="1">
          <mxGeometry y="26" width="246" height="244" as="geometry" />
        </mxCell>
        <mxCell id="zkfFHV4jXpPFQw0GAbJ--12" value="" style="endArrow=block;endSize=10;endFill=0;shadow=0;strokeWidth=1;rounded=0;edgeStyle=elbowEdgeStyle;elbow=vertical;" parent="WIyWlLk6GJQsqaUBKTNV-1" source="zkfFHV4jXpPFQw0GAbJ--6" target="zkfFHV4jXpPFQw0GAbJ--0" edge="1">
          <mxGeometry width="160" relative="1" as="geometry">
            <mxPoint x="2254" y="-3217" as="sourcePoint" />
            <mxPoint x="2254" y="-3217" as="targetPoint" />
          </mxGeometry>
        </mxCell>
        <mxCell id="EDpNB0EzXoPj7TMAPCz_-63" style="edgeStyle=orthogonalEdgeStyle;rounded=0;orthogonalLoop=1;jettySize=auto;html=1;exitX=0;exitY=0.5;exitDx=0;exitDy=0;entryX=0.994;entryY=0.207;entryDx=0;entryDy=0;entryPerimeter=0;" edge="1" parent="WIyWlLk6GJQsqaUBKTNV-1" source="EDpNB0EzXoPj7TMAPCz_-3" target="EDpNB0EzXoPj7TMAPCz_-62">
          <mxGeometry relative="1" as="geometry">
            <Array as="points">
              <mxPoint x="1520" y="-3115" />
              <mxPoint x="1520" y="-3033" />
            </Array>
          </mxGeometry>
        </mxCell>
        <mxCell id="EDpNB0EzXoPj7TMAPCz_-3" value="&quot;itensor/all_basic.h&quot;" style="swimlane;fontStyle=0;align=center;verticalAlign=top;childLayout=stackLayout;horizontal=1;startSize=26;horizontalStack=0;resizeParent=1;resizeLast=0;collapsible=1;marginBottom=0;rounded=0;shadow=0;strokeWidth=1;" vertex="1" parent="WIyWlLk6GJQsqaUBKTNV-1">
          <mxGeometry x="1640" y="-3170" width="200" height="110" as="geometry">
            <mxRectangle x="130" y="380" width="160" height="26" as="alternateBounds" />
          </mxGeometry>
        </mxCell>
        <mxCell id="EDpNB0EzXoPj7TMAPCz_-4" value="#include &quot;itensor/decomp.h&quot;&#xa;#include &quot;itensor/iterativesolvers.h&quot;&#xa;#include &quot;itensor/util/input.h&quot;&#xa;#include &quot;itensor/util/autovector.h&quot;&#xa;#include &quot;itensor/util/str.h&quot;" style="text;align=left;verticalAlign=top;spacingLeft=4;spacingRight=4;overflow=hidden;rotatable=0;points=[[0,0.5],[1,0.5]];portConstraint=eastwest;" vertex="1" parent="EDpNB0EzXoPj7TMAPCz_-3">
          <mxGeometry y="26" width="200" height="84" as="geometry" />
        </mxCell>
        <mxCell id="EDpNB0EzXoPj7TMAPCz_-7" style="edgeStyle=orthogonalEdgeStyle;rounded=0;orthogonalLoop=1;jettySize=auto;html=1;exitX=-0.001;exitY=0.048;exitDx=0;exitDy=0;exitPerimeter=0;entryX=0.997;entryY=0.02;entryDx=0;entryDy=0;entryPerimeter=0;" edge="1" parent="WIyWlLk6GJQsqaUBKTNV-1" source="zkfFHV4jXpPFQw0GAbJ--7" target="EDpNB0EzXoPj7TMAPCz_-4">
          <mxGeometry relative="1" as="geometry">
            <mxPoint x="2220" y="-3142" as="sourcePoint" />
            <mxPoint x="1845" y="-3142" as="targetPoint" />
            <Array as="points" />
          </mxGeometry>
        </mxCell>
        <mxCell id="EDpNB0EzXoPj7TMAPCz_-8" value="&quot;itensor/util/stats.h&quot;" style="swimlane;fontStyle=0;align=center;verticalAlign=top;childLayout=stackLayout;horizontal=1;startSize=26;horizontalStack=0;resizeParent=1;resizeLast=0;collapsible=1;marginBottom=0;rounded=0;shadow=0;strokeWidth=1;" vertex="1" parent="WIyWlLk6GJQsqaUBKTNV-1">
          <mxGeometry x="1716" y="-3040" width="200" height="80" as="geometry">
            <mxRectangle x="130" y="380" width="160" height="26" as="alternateBounds" />
          </mxGeometry>
        </mxCell>
        <mxCell id="EDpNB0EzXoPj7TMAPCz_-9" value="#include &quot;itensor/real.h&quot;&#xa;#include &quot;itensor/tensor/vec.h&quot;&#xa;#include &quot;itensor/global.h&quot;" style="text;align=left;verticalAlign=top;spacingLeft=4;spacingRight=4;overflow=hidden;rotatable=0;points=[[0,0.5],[1,0.5]];portConstraint=eastwest;" vertex="1" parent="EDpNB0EzXoPj7TMAPCz_-8">
          <mxGeometry y="26" width="200" height="54" as="geometry" />
        </mxCell>
        <mxCell id="EDpNB0EzXoPj7TMAPCz_-10" style="edgeStyle=orthogonalEdgeStyle;rounded=0;orthogonalLoop=1;jettySize=auto;html=1;entryX=0.887;entryY=0.011;entryDx=0;entryDy=0;entryPerimeter=0;exitX=-0.002;exitY=0.119;exitDx=0;exitDy=0;exitPerimeter=0;" edge="1" parent="WIyWlLk6GJQsqaUBKTNV-1" source="zkfFHV4jXpPFQw0GAbJ--7">
          <mxGeometry relative="1" as="geometry">
            <mxPoint x="2230" y="-3128" as="sourcePoint" />
            <mxPoint x="1879.4" y="-3039.12" as="targetPoint" />
            <Array as="points">
              <mxPoint x="1879" y="-3125" />
            </Array>
          </mxGeometry>
        </mxCell>
        <mxCell id="EDpNB0EzXoPj7TMAPCz_-11" value="&quot;itensor/mps/dmrg.h&quot;" style="swimlane;fontStyle=0;align=center;verticalAlign=top;childLayout=stackLayout;horizontal=1;startSize=26;horizontalStack=0;resizeParent=1;resizeLast=0;collapsible=1;marginBottom=0;rounded=0;shadow=0;strokeWidth=1;" vertex="1" parent="WIyWlLk6GJQsqaUBKTNV-1">
          <mxGeometry x="1768" y="-2930" width="229" height="130" as="geometry">
            <mxRectangle x="130" y="380" width="160" height="26" as="alternateBounds" />
          </mxGeometry>
        </mxCell>
        <mxCell id="EDpNB0EzXoPj7TMAPCz_-12" value="#include &quot;itensor/iterativesolvers.h&quot;&#xa;#include &quot;itensor/mps/localmposet.h&quot;&#xa;#include &quot;itensor/mps/localmpo_mps.h&quot;&#xa;#include &quot;itensor/mps/sweeps.h&quot;&#xa;#include &quot;itensor/mps/DMRGObserver.h&quot;&#xa;#include &quot;itensor/util/cputime.h&quot;" style="text;align=left;verticalAlign=top;spacingLeft=4;spacingRight=4;overflow=hidden;rotatable=0;points=[[0,0.5],[1,0.5]];portConstraint=eastwest;" vertex="1" parent="EDpNB0EzXoPj7TMAPCz_-11">
          <mxGeometry y="26" width="229" height="104" as="geometry" />
        </mxCell>
        <mxCell id="EDpNB0EzXoPj7TMAPCz_-14" style="edgeStyle=orthogonalEdgeStyle;rounded=0;orthogonalLoop=1;jettySize=auto;html=1;entryX=0.894;entryY=0.001;entryDx=0;entryDy=0;entryPerimeter=0;exitX=0.002;exitY=0.175;exitDx=0;exitDy=0;exitPerimeter=0;" edge="1" parent="WIyWlLk6GJQsqaUBKTNV-1" source="zkfFHV4jXpPFQw0GAbJ--7">
          <mxGeometry relative="1" as="geometry">
            <mxPoint x="2230" y="-3112" as="sourcePoint" />
            <mxPoint x="1958.62" y="-2929.87" as="targetPoint" />
            <Array as="points">
              <mxPoint x="1959" y="-3111" />
            </Array>
          </mxGeometry>
        </mxCell>
        <mxCell id="EDpNB0EzXoPj7TMAPCz_-16" value="&quot;itensor/mps/tevol.h&quot;" style="swimlane;fontStyle=0;align=center;verticalAlign=top;childLayout=stackLayout;horizontal=1;startSize=26;horizontalStack=0;resizeParent=1;resizeLast=0;collapsible=1;marginBottom=0;rounded=0;shadow=0;strokeWidth=1;" vertex="1" parent="WIyWlLk6GJQsqaUBKTNV-1">
          <mxGeometry x="1840" y="-2770" width="229" height="90" as="geometry">
            <mxRectangle x="130" y="380" width="160" height="26" as="alternateBounds" />
          </mxGeometry>
        </mxCell>
        <mxCell id="EDpNB0EzXoPj7TMAPCz_-17" value="#include &quot;itensor/mps/mpo.h&quot;&#xa;#include &quot;itensor/mps/bondgate.h&quot;&#xa;#include &quot;itensor/mps/TEvolObserver.h&quot;" style="text;align=left;verticalAlign=top;spacingLeft=4;spacingRight=4;overflow=hidden;rotatable=0;points=[[0,0.5],[1,0.5]];portConstraint=eastwest;" vertex="1" parent="EDpNB0EzXoPj7TMAPCz_-16">
          <mxGeometry y="26" width="229" height="64" as="geometry" />
        </mxCell>
        <mxCell id="EDpNB0EzXoPj7TMAPCz_-18" style="edgeStyle=orthogonalEdgeStyle;rounded=0;orthogonalLoop=1;jettySize=auto;html=1;exitX=0;exitY=0.233;exitDx=0;exitDy=0;entryX=0.837;entryY=0.004;entryDx=0;entryDy=0;entryPerimeter=0;exitPerimeter=0;" edge="1" parent="WIyWlLk6GJQsqaUBKTNV-1" source="zkfFHV4jXpPFQw0GAbJ--7" target="EDpNB0EzXoPj7TMAPCz_-16">
          <mxGeometry relative="1" as="geometry" />
        </mxCell>
        <mxCell id="EDpNB0EzXoPj7TMAPCz_-19" value="&quot;itensor/mps/autompo.h&quot;" style="swimlane;fontStyle=0;align=center;verticalAlign=top;childLayout=stackLayout;horizontal=1;startSize=26;horizontalStack=0;resizeParent=1;resizeLast=0;collapsible=1;marginBottom=0;rounded=0;shadow=0;strokeWidth=1;" vertex="1" parent="WIyWlLk6GJQsqaUBKTNV-1">
          <mxGeometry x="1890" y="-2650" width="229" height="90" as="geometry">
            <mxRectangle x="130" y="380" width="160" height="26" as="alternateBounds" />
          </mxGeometry>
        </mxCell>
        <mxCell id="EDpNB0EzXoPj7TMAPCz_-20" value="#include &quot;itensor/global.h&quot;&#xa;#include &quot;itensor/mps/mpo.h&quot;" style="text;align=left;verticalAlign=top;spacingLeft=4;spacingRight=4;overflow=hidden;rotatable=0;points=[[0,0.5],[1,0.5]];portConstraint=eastwest;" vertex="1" parent="EDpNB0EzXoPj7TMAPCz_-19">
          <mxGeometry y="26" width="229" height="64" as="geometry" />
        </mxCell>
        <mxCell id="EDpNB0EzXoPj7TMAPCz_-21" style="edgeStyle=orthogonalEdgeStyle;rounded=0;orthogonalLoop=1;jettySize=auto;html=1;entryX=0.87;entryY=-0.004;entryDx=0;entryDy=0;entryPerimeter=0;exitX=0;exitY=0.288;exitDx=0;exitDy=0;exitPerimeter=0;" edge="1" parent="WIyWlLk6GJQsqaUBKTNV-1" source="zkfFHV4jXpPFQw0GAbJ--7" target="EDpNB0EzXoPj7TMAPCz_-19">
          <mxGeometry relative="1" as="geometry">
            <mxPoint x="2230" y="-3080" as="sourcePoint" />
          </mxGeometry>
        </mxCell>
        <mxCell id="EDpNB0EzXoPj7TMAPCz_-23" value="&quot;itensor/mps/lattice/square.h&quot;" style="swimlane;fontStyle=0;align=center;verticalAlign=top;childLayout=stackLayout;horizontal=1;startSize=26;horizontalStack=0;resizeParent=1;resizeLast=0;collapsible=1;marginBottom=0;rounded=0;shadow=0;strokeWidth=1;" vertex="1" parent="WIyWlLk6GJQsqaUBKTNV-1">
          <mxGeometry x="1930" y="-2520" width="249" height="60" as="geometry">
            <mxRectangle x="130" y="380" width="160" height="26" as="alternateBounds" />
          </mxGeometry>
        </mxCell>
        <mxCell id="EDpNB0EzXoPj7TMAPCz_-24" value="#include &quot;itensor/mps/lattice/latticebond.h&quot;" style="text;align=left;verticalAlign=top;spacingLeft=4;spacingRight=4;overflow=hidden;rotatable=0;points=[[0,0.5],[1,0.5]];portConstraint=eastwest;" vertex="1" parent="WIyWlLk6GJQsqaUBKTNV-1">
          <mxGeometry x="1930" y="-2494" width="249" height="34" as="geometry" />
        </mxCell>
        <mxCell id="EDpNB0EzXoPj7TMAPCz_-25" style="edgeStyle=orthogonalEdgeStyle;rounded=0;orthogonalLoop=1;jettySize=auto;html=1;exitX=0.001;exitY=0.341;exitDx=0;exitDy=0;entryX=0.878;entryY=-0.005;entryDx=0;entryDy=0;entryPerimeter=0;exitPerimeter=0;" edge="1" parent="WIyWlLk6GJQsqaUBKTNV-1" source="zkfFHV4jXpPFQw0GAbJ--7" target="EDpNB0EzXoPj7TMAPCz_-23">
          <mxGeometry relative="1" as="geometry" />
        </mxCell>
        <mxCell id="EDpNB0EzXoPj7TMAPCz_-26" value="&quot;itensor/mps/lattice/triangular.h&quot;" style="swimlane;fontStyle=0;align=center;verticalAlign=top;childLayout=stackLayout;horizontal=1;startSize=26;horizontalStack=0;resizeParent=1;resizeLast=0;collapsible=1;marginBottom=0;rounded=0;shadow=0;strokeWidth=1;" vertex="1" parent="WIyWlLk6GJQsqaUBKTNV-1">
          <mxGeometry x="1990" y="-2410" width="249" height="60" as="geometry">
            <mxRectangle x="130" y="380" width="160" height="26" as="alternateBounds" />
          </mxGeometry>
        </mxCell>
        <mxCell id="EDpNB0EzXoPj7TMAPCz_-27" value="#include &quot;itensor/mps/lattice/latticebond.h&quot;" style="text;align=left;verticalAlign=top;spacingLeft=4;spacingRight=4;overflow=hidden;rotatable=0;points=[[0,0.5],[1,0.5]];portConstraint=eastwest;" vertex="1" parent="WIyWlLk6GJQsqaUBKTNV-1">
          <mxGeometry x="1990" y="-2384" width="249" height="34" as="geometry" />
        </mxCell>
        <mxCell id="EDpNB0EzXoPj7TMAPCz_-28" style="edgeStyle=orthogonalEdgeStyle;rounded=0;orthogonalLoop=1;jettySize=auto;html=1;exitX=0;exitY=0.403;exitDx=0;exitDy=0;exitPerimeter=0;" edge="1" parent="WIyWlLk6GJQsqaUBKTNV-1" source="zkfFHV4jXpPFQw0GAbJ--7">
          <mxGeometry relative="1" as="geometry">
            <mxPoint x="2200" y="-2410" as="targetPoint" />
            <Array as="points">
              <mxPoint x="2200" y="-3056" />
              <mxPoint x="2200" y="-2412" />
            </Array>
          </mxGeometry>
        </mxCell>
        <mxCell id="EDpNB0EzXoPj7TMAPCz_-29" value="&quot;itensor/mps/sites/spinhalf.h&quot;" style="swimlane;fontStyle=0;align=center;verticalAlign=top;childLayout=stackLayout;horizontal=1;startSize=26;horizontalStack=0;resizeParent=1;resizeLast=0;collapsible=1;marginBottom=0;rounded=0;shadow=0;strokeWidth=1;" vertex="1" parent="WIyWlLk6GJQsqaUBKTNV-1">
          <mxGeometry x="2930" y="-3070" width="249" height="80" as="geometry">
            <mxRectangle x="130" y="380" width="160" height="26" as="alternateBounds" />
          </mxGeometry>
        </mxCell>
        <mxCell id="EDpNB0EzXoPj7TMAPCz_-30" value="#include &quot;itensor/mps/siteset.h&quot;&#xa;#include &quot;itensor/util/str.h&quot;" style="text;align=left;verticalAlign=top;spacingLeft=4;spacingRight=4;overflow=hidden;rotatable=0;points=[[0,0.5],[1,0.5]];portConstraint=eastwest;" vertex="1" parent="WIyWlLk6GJQsqaUBKTNV-1">
          <mxGeometry x="2930" y="-3044" width="249" height="54" as="geometry" />
        </mxCell>
        <mxCell id="EDpNB0EzXoPj7TMAPCz_-31" style="edgeStyle=orthogonalEdgeStyle;rounded=0;orthogonalLoop=1;jettySize=auto;html=1;exitX=0.996;exitY=0.464;exitDx=0;exitDy=0;exitPerimeter=0;" edge="1" parent="WIyWlLk6GJQsqaUBKTNV-1" source="zkfFHV4jXpPFQw0GAbJ--7">
          <mxGeometry relative="1" as="geometry">
            <mxPoint x="2480" y="-3043" as="sourcePoint" />
            <mxPoint x="2930" y="-3040" as="targetPoint" />
            <Array as="points">
              <mxPoint x="2480" y="-3041" />
            </Array>
          </mxGeometry>
        </mxCell>
        <mxCell id="EDpNB0EzXoPj7TMAPCz_-32" value="&quot;itensor/mps/sites/spinone.h&quot;" style="swimlane;fontStyle=0;align=center;verticalAlign=top;childLayout=stackLayout;horizontal=1;startSize=26;horizontalStack=0;resizeParent=1;resizeLast=0;collapsible=1;marginBottom=0;rounded=0;shadow=0;strokeWidth=1;" vertex="1" parent="WIyWlLk6GJQsqaUBKTNV-1">
          <mxGeometry x="2861" y="-2960" width="249" height="80" as="geometry">
            <mxRectangle x="130" y="380" width="160" height="26" as="alternateBounds" />
          </mxGeometry>
        </mxCell>
        <mxCell id="EDpNB0EzXoPj7TMAPCz_-33" value="#include &quot;itensor/mps/siteset.h&quot;&#xa;#include &quot;itensor/mps/sites/spinhalf.h&quot;&#xa;#include &quot;itensor/util/str.h&quot;" style="text;align=left;verticalAlign=top;spacingLeft=4;spacingRight=4;overflow=hidden;rotatable=0;points=[[0,0.5],[1,0.5]];portConstraint=eastwest;" vertex="1" parent="WIyWlLk6GJQsqaUBKTNV-1">
          <mxGeometry x="2861" y="-2934" width="249" height="54" as="geometry" />
        </mxCell>
        <mxCell id="EDpNB0EzXoPj7TMAPCz_-34" style="edgeStyle=orthogonalEdgeStyle;rounded=0;orthogonalLoop=1;jettySize=auto;html=1;exitX=0.998;exitY=0.517;exitDx=0;exitDy=0;entryX=0.195;entryY=-0.005;entryDx=0;entryDy=0;entryPerimeter=0;exitPerimeter=0;" edge="1" parent="WIyWlLk6GJQsqaUBKTNV-1" source="zkfFHV4jXpPFQw0GAbJ--7" target="EDpNB0EzXoPj7TMAPCz_-32">
          <mxGeometry relative="1" as="geometry" />
        </mxCell>
        <mxCell id="EDpNB0EzXoPj7TMAPCz_-35" value="&quot;itensor/mps/sites/spintwo.h&quot;" style="swimlane;fontStyle=0;align=center;verticalAlign=top;childLayout=stackLayout;horizontal=1;startSize=26;horizontalStack=0;resizeParent=1;resizeLast=0;collapsible=1;marginBottom=0;rounded=0;shadow=0;strokeWidth=1;" vertex="1" parent="WIyWlLk6GJQsqaUBKTNV-1">
          <mxGeometry x="2810" y="-2850" width="249" height="80" as="geometry">
            <mxRectangle x="130" y="380" width="160" height="26" as="alternateBounds" />
          </mxGeometry>
        </mxCell>
        <mxCell id="EDpNB0EzXoPj7TMAPCz_-36" value="#include &quot;itensor/mps/siteset.h&quot;&#xa;#include &quot;itensor/mps/sites/spinhalf.h&#xa;&quot;#include &quot;itensor/util/str.h&quot;" style="text;align=left;verticalAlign=top;spacingLeft=4;spacingRight=4;overflow=hidden;rotatable=0;points=[[0,0.5],[1,0.5]];portConstraint=eastwest;" vertex="1" parent="WIyWlLk6GJQsqaUBKTNV-1">
          <mxGeometry x="2810" y="-2824" width="249" height="54" as="geometry" />
        </mxCell>
        <mxCell id="EDpNB0EzXoPj7TMAPCz_-38" style="edgeStyle=orthogonalEdgeStyle;rounded=0;orthogonalLoop=1;jettySize=auto;html=1;entryX=0.142;entryY=-0.007;entryDx=0;entryDy=0;entryPerimeter=0;" edge="1" parent="WIyWlLk6GJQsqaUBKTNV-1" target="EDpNB0EzXoPj7TMAPCz_-35">
          <mxGeometry relative="1" as="geometry">
            <mxPoint x="2477" y="-3010" as="sourcePoint" />
            <Array as="points">
              <mxPoint x="2477" y="-3010" />
              <mxPoint x="2845" y="-3010" />
            </Array>
          </mxGeometry>
        </mxCell>
        <mxCell id="EDpNB0EzXoPj7TMAPCz_-39" value="&quot;itensor/mps/sites/customspin.h&quot;" style="swimlane;fontStyle=0;align=center;verticalAlign=top;childLayout=stackLayout;horizontal=1;startSize=26;horizontalStack=0;resizeParent=1;resizeLast=0;collapsible=1;marginBottom=0;rounded=0;shadow=0;strokeWidth=1;" vertex="1" parent="WIyWlLk6GJQsqaUBKTNV-1">
          <mxGeometry x="2760" y="-2730" width="249" height="60" as="geometry">
            <mxRectangle x="130" y="380" width="160" height="26" as="alternateBounds" />
          </mxGeometry>
        </mxCell>
        <mxCell id="EDpNB0EzXoPj7TMAPCz_-40" value="#include &quot;itensor/mps/siteset.h&quot;" style="text;align=left;verticalAlign=top;spacingLeft=4;spacingRight=4;overflow=hidden;rotatable=0;points=[[0,0.5],[1,0.5]];portConstraint=eastwest;" vertex="1" parent="WIyWlLk6GJQsqaUBKTNV-1">
          <mxGeometry x="2760" y="-2704" width="249" height="34" as="geometry" />
        </mxCell>
        <mxCell id="EDpNB0EzXoPj7TMAPCz_-41" style="edgeStyle=orthogonalEdgeStyle;rounded=0;orthogonalLoop=1;jettySize=auto;html=1;entryX=0.124;entryY=-0.017;entryDx=0;entryDy=0;entryPerimeter=0;exitX=0.998;exitY=0.637;exitDx=0;exitDy=0;exitPerimeter=0;" edge="1" parent="WIyWlLk6GJQsqaUBKTNV-1" source="zkfFHV4jXpPFQw0GAbJ--7" target="EDpNB0EzXoPj7TMAPCz_-39">
          <mxGeometry relative="1" as="geometry" />
        </mxCell>
        <mxCell id="EDpNB0EzXoPj7TMAPCz_-42" value="&quot;itensor/mps/sites/boson.h&quot;" style="swimlane;fontStyle=0;align=center;verticalAlign=top;childLayout=stackLayout;horizontal=1;startSize=26;horizontalStack=0;resizeParent=1;resizeLast=0;collapsible=1;marginBottom=0;rounded=0;shadow=0;strokeWidth=1;" vertex="1" parent="WIyWlLk6GJQsqaUBKTNV-1">
          <mxGeometry x="2700" y="-2630" width="249" height="70" as="geometry">
            <mxRectangle x="130" y="380" width="160" height="26" as="alternateBounds" />
          </mxGeometry>
        </mxCell>
        <mxCell id="EDpNB0EzXoPj7TMAPCz_-43" value="#include &quot;itensor/mps/siteset.h&quot;&#xa;#include &quot;itensor/util/str.h&quot;" style="text;align=left;verticalAlign=top;spacingLeft=4;spacingRight=4;overflow=hidden;rotatable=0;points=[[0,0.5],[1,0.5]];portConstraint=eastwest;" vertex="1" parent="WIyWlLk6GJQsqaUBKTNV-1">
          <mxGeometry x="2700" y="-2604" width="249" height="44" as="geometry" />
        </mxCell>
        <mxCell id="EDpNB0EzXoPj7TMAPCz_-44" value="&quot;itensor/mps/sites/electron.h&quot;" style="swimlane;fontStyle=0;align=center;verticalAlign=top;childLayout=stackLayout;horizontal=1;startSize=26;horizontalStack=0;resizeParent=1;resizeLast=0;collapsible=1;marginBottom=0;rounded=0;shadow=0;strokeWidth=1;" vertex="1" parent="WIyWlLk6GJQsqaUBKTNV-1">
          <mxGeometry x="2630" y="-2520" width="249" height="70" as="geometry">
            <mxRectangle x="130" y="380" width="160" height="26" as="alternateBounds" />
          </mxGeometry>
        </mxCell>
        <mxCell id="EDpNB0EzXoPj7TMAPCz_-45" value="#include &quot;itensor/mps/siteset.h&quot;&#xa;#include &quot;itensor/util/str.h&quot;" style="text;align=left;verticalAlign=top;spacingLeft=4;spacingRight=4;overflow=hidden;rotatable=0;points=[[0,0.5],[1,0.5]];portConstraint=eastwest;" vertex="1" parent="WIyWlLk6GJQsqaUBKTNV-1">
          <mxGeometry x="2630" y="-2494" width="249" height="44" as="geometry" />
        </mxCell>
        <mxCell id="EDpNB0EzXoPj7TMAPCz_-46" value="&quot;itensor/mps/sites/fermion.h&quot;" style="swimlane;fontStyle=0;align=center;verticalAlign=top;childLayout=stackLayout;horizontal=1;startSize=26;horizontalStack=0;resizeParent=1;resizeLast=0;collapsible=1;marginBottom=0;rounded=0;shadow=0;strokeWidth=1;" vertex="1" parent="WIyWlLk6GJQsqaUBKTNV-1">
          <mxGeometry x="2561" y="-2420" width="249" height="70" as="geometry">
            <mxRectangle x="130" y="380" width="160" height="26" as="alternateBounds" />
          </mxGeometry>
        </mxCell>
        <mxCell id="EDpNB0EzXoPj7TMAPCz_-47" value="#include &quot;itensor/mps/siteset.h&quot;&#xa;#include &quot;itensor/util/str.h&quot;" style="text;align=left;verticalAlign=top;spacingLeft=4;spacingRight=4;overflow=hidden;rotatable=0;points=[[0,0.5],[1,0.5]];portConstraint=eastwest;" vertex="1" parent="WIyWlLk6GJQsqaUBKTNV-1">
          <mxGeometry x="2561" y="-2394" width="249" height="44" as="geometry" />
        </mxCell>
        <mxCell id="EDpNB0EzXoPj7TMAPCz_-48" value="&quot;itensor/mps/sites/tj.h&quot;" style="swimlane;fontStyle=0;align=center;verticalAlign=top;childLayout=stackLayout;horizontal=1;startSize=26;horizontalStack=0;resizeParent=1;resizeLast=0;collapsible=1;marginBottom=0;rounded=0;shadow=0;strokeWidth=1;" vertex="1" parent="WIyWlLk6GJQsqaUBKTNV-1">
          <mxGeometry x="2119" y="-2280" width="249" height="80" as="geometry">
            <mxRectangle x="130" y="380" width="160" height="26" as="alternateBounds" />
          </mxGeometry>
        </mxCell>
        <mxCell id="EDpNB0EzXoPj7TMAPCz_-49" value="#include &quot;itensor/mps/siteset.h&quot;&#xa;#include &quot;itensor/util/str.h&quot;" style="text;align=left;verticalAlign=top;spacingLeft=4;spacingRight=4;overflow=hidden;rotatable=0;points=[[0,0.5],[1,0.5]];portConstraint=eastwest;" vertex="1" parent="WIyWlLk6GJQsqaUBKTNV-1">
          <mxGeometry x="2119" y="-2254" width="249" height="44" as="geometry" />
        </mxCell>
        <mxCell id="EDpNB0EzXoPj7TMAPCz_-50" value="&quot;itensor/mps/sites/Z3.h&quot;" style="swimlane;fontStyle=0;align=center;verticalAlign=top;childLayout=stackLayout;horizontal=1;startSize=26;horizontalStack=0;resizeParent=1;resizeLast=0;collapsible=1;marginBottom=0;rounded=0;shadow=0;strokeWidth=1;" vertex="1" parent="WIyWlLk6GJQsqaUBKTNV-1">
          <mxGeometry x="2480" y="-2280" width="249" height="80" as="geometry">
            <mxRectangle x="130" y="380" width="160" height="26" as="alternateBounds" />
          </mxGeometry>
        </mxCell>
        <mxCell id="EDpNB0EzXoPj7TMAPCz_-51" value="#include &quot;itensor/mps/siteset.h&quot;&#xa;#include &quot;itensor/util/str.h&quot;" style="text;align=left;verticalAlign=top;spacingLeft=4;spacingRight=4;overflow=hidden;rotatable=0;points=[[0,0.5],[1,0.5]];portConstraint=eastwest;" vertex="1" parent="WIyWlLk6GJQsqaUBKTNV-1">
          <mxGeometry x="2480" y="-2254" width="249" height="44" as="geometry" />
        </mxCell>
        <mxCell id="EDpNB0EzXoPj7TMAPCz_-53" style="edgeStyle=orthogonalEdgeStyle;rounded=0;orthogonalLoop=1;jettySize=auto;html=1;exitX=1;exitY=0.5;exitDx=0;exitDy=0;" edge="1" parent="WIyWlLk6GJQsqaUBKTNV-1">
          <mxGeometry relative="1" as="geometry">
            <mxPoint x="2477" y="-2987" as="sourcePoint" />
            <mxPoint x="2735" y="-2630" as="targetPoint" />
          </mxGeometry>
        </mxCell>
        <mxCell id="EDpNB0EzXoPj7TMAPCz_-54" style="edgeStyle=orthogonalEdgeStyle;rounded=0;orthogonalLoop=1;jettySize=auto;html=1;exitX=1;exitY=0.733;exitDx=0;exitDy=0;entryX=0.155;entryY=-0.011;entryDx=0;entryDy=0;entryPerimeter=0;exitPerimeter=0;" edge="1" parent="WIyWlLk6GJQsqaUBKTNV-1" source="zkfFHV4jXpPFQw0GAbJ--7" target="EDpNB0EzXoPj7TMAPCz_-44">
          <mxGeometry relative="1" as="geometry" />
        </mxCell>
        <mxCell id="EDpNB0EzXoPj7TMAPCz_-55" style="edgeStyle=orthogonalEdgeStyle;rounded=0;orthogonalLoop=1;jettySize=auto;html=1;exitX=1;exitY=0.5;exitDx=0;exitDy=0;" edge="1" parent="WIyWlLk6GJQsqaUBKTNV-1">
          <mxGeometry relative="1" as="geometry">
            <mxPoint x="2477" y="-2957" as="sourcePoint" />
            <mxPoint x="2602" y="-2420" as="targetPoint" />
          </mxGeometry>
        </mxCell>
        <mxCell id="EDpNB0EzXoPj7TMAPCz_-56" style="edgeStyle=orthogonalEdgeStyle;rounded=0;orthogonalLoop=1;jettySize=auto;html=1;exitX=1.001;exitY=0.858;exitDx=0;exitDy=0;entryX=0.175;entryY=-0.044;entryDx=0;entryDy=0;entryPerimeter=0;exitPerimeter=0;" edge="1" parent="WIyWlLk6GJQsqaUBKTNV-1" source="zkfFHV4jXpPFQw0GAbJ--7" target="EDpNB0EzXoPj7TMAPCz_-50">
          <mxGeometry relative="1" as="geometry" />
        </mxCell>
        <mxCell id="EDpNB0EzXoPj7TMAPCz_-58" value="&quot;itensor/decomp.h&quot;" style="swimlane;fontStyle=0;align=center;verticalAlign=top;childLayout=stackLayout;horizontal=1;startSize=26;horizontalStack=0;resizeParent=1;resizeLast=0;collapsible=1;marginBottom=0;rounded=0;shadow=0;strokeWidth=1;" vertex="1" parent="WIyWlLk6GJQsqaUBKTNV-1">
          <mxGeometry x="1280" y="-3170" width="200" height="80" as="geometry">
            <mxRectangle x="130" y="380" width="160" height="26" as="alternateBounds" />
          </mxGeometry>
        </mxCell>
        <mxCell id="EDpNB0EzXoPj7TMAPCz_-59" value="#include &quot;itensor/spectrum.h&quot;&#xa;#include &quot;itensor/itensor.h&quot;" style="text;align=left;verticalAlign=top;spacingLeft=4;spacingRight=4;overflow=hidden;rotatable=0;points=[[0,0.5],[1,0.5]];portConstraint=eastwest;" vertex="1" parent="EDpNB0EzXoPj7TMAPCz_-58">
          <mxGeometry y="26" width="200" height="54" as="geometry" />
        </mxCell>
        <mxCell id="EDpNB0EzXoPj7TMAPCz_-60" style="edgeStyle=orthogonalEdgeStyle;rounded=0;orthogonalLoop=1;jettySize=auto;html=1;entryX=0.995;entryY=0.194;entryDx=0;entryDy=0;entryPerimeter=0;" edge="1" parent="WIyWlLk6GJQsqaUBKTNV-1" target="EDpNB0EzXoPj7TMAPCz_-59">
          <mxGeometry relative="1" as="geometry">
            <mxPoint x="1640" y="-3134" as="sourcePoint" />
            <Array as="points">
              <mxPoint x="1483" y="-3134" />
            </Array>
          </mxGeometry>
        </mxCell>
        <mxCell id="EDpNB0EzXoPj7TMAPCz_-61" value="&quot;itensor/iterativesolvers.h&quot;" style="swimlane;fontStyle=0;align=center;verticalAlign=top;childLayout=stackLayout;horizontal=1;startSize=26;horizontalStack=0;resizeParent=1;resizeLast=0;collapsible=1;marginBottom=0;rounded=0;shadow=0;strokeWidth=1;" vertex="1" parent="WIyWlLk6GJQsqaUBKTNV-1">
          <mxGeometry x="1280" y="-3070" width="200" height="80" as="geometry">
            <mxRectangle x="130" y="380" width="160" height="26" as="alternateBounds" />
          </mxGeometry>
        </mxCell>
        <mxCell id="EDpNB0EzXoPj7TMAPCz_-62" value="#include &quot;itensor/util/iterate.h&quot;&#xa;#include &quot;itensor/itensor.h&quot;&#xa;#include &quot;itensor/tensor/algs.h&quot;" style="text;align=left;verticalAlign=top;spacingLeft=4;spacingRight=4;overflow=hidden;rotatable=0;points=[[0,0.5],[1,0.5]];portConstraint=eastwest;" vertex="1" parent="EDpNB0EzXoPj7TMAPCz_-61">
          <mxGeometry y="26" width="200" height="54" as="geometry" />
        </mxCell>
        <mxCell id="EDpNB0EzXoPj7TMAPCz_-64" value="&quot;itensor/util/input.h&quot;" style="swimlane;fontStyle=0;align=center;verticalAlign=top;childLayout=stackLayout;horizontal=1;startSize=26;horizontalStack=0;resizeParent=1;resizeLast=0;collapsible=1;marginBottom=0;rounded=0;shadow=0;strokeWidth=1;" vertex="1" parent="WIyWlLk6GJQsqaUBKTNV-1">
          <mxGeometry x="1280" y="-2960" width="200" height="80" as="geometry">
            <mxRectangle x="130" y="380" width="160" height="26" as="alternateBounds" />
          </mxGeometry>
        </mxCell>
        <mxCell id="EDpNB0EzXoPj7TMAPCz_-65" value="#include &quot;itensor/types.h&quot;&#xa;#include &quot;itensor/util/error.h&quot;&#xa;#include &quot;itensor/util/optional_ptr.h&quot;" style="text;align=left;verticalAlign=top;spacingLeft=4;spacingRight=4;overflow=hidden;rotatable=0;points=[[0,0.5],[1,0.5]];portConstraint=eastwest;" vertex="1" parent="EDpNB0EzXoPj7TMAPCz_-64">
          <mxGeometry y="26" width="200" height="54" as="geometry" />
        </mxCell>
        <mxCell id="EDpNB0EzXoPj7TMAPCz_-66" style="edgeStyle=orthogonalEdgeStyle;rounded=0;orthogonalLoop=1;jettySize=auto;html=1;exitX=0;exitY=0.5;exitDx=0;exitDy=0;entryX=0.996;entryY=0.267;entryDx=0;entryDy=0;entryPerimeter=0;" edge="1" parent="WIyWlLk6GJQsqaUBKTNV-1" source="EDpNB0EzXoPj7TMAPCz_-4" target="EDpNB0EzXoPj7TMAPCz_-65">
          <mxGeometry relative="1" as="geometry">
            <Array as="points">
              <mxPoint x="1550" y="-3102" />
              <mxPoint x="1550" y="-2920" />
            </Array>
          </mxGeometry>
        </mxCell>
        <mxCell id="EDpNB0EzXoPj7TMAPCz_-67" value="&quot;itensor/util/autovector.h&quot;" style="swimlane;fontStyle=0;align=center;verticalAlign=top;childLayout=stackLayout;horizontal=1;startSize=26;horizontalStack=0;resizeParent=1;resizeLast=0;collapsible=1;marginBottom=0;rounded=0;shadow=0;strokeWidth=1;" vertex="1" parent="WIyWlLk6GJQsqaUBKTNV-1">
          <mxGeometry x="1280" y="-2850" width="200" height="60" as="geometry">
            <mxRectangle x="130" y="380" width="160" height="26" as="alternateBounds" />
          </mxGeometry>
        </mxCell>
        <mxCell id="EDpNB0EzXoPj7TMAPCz_-70" style="edgeStyle=orthogonalEdgeStyle;rounded=0;orthogonalLoop=1;jettySize=auto;html=1;exitX=0.002;exitY=0.653;exitDx=0;exitDy=0;exitPerimeter=0;" edge="1" parent="WIyWlLk6GJQsqaUBKTNV-1" source="EDpNB0EzXoPj7TMAPCz_-4">
          <mxGeometry relative="1" as="geometry">
            <mxPoint x="1480" y="-2805" as="targetPoint" />
            <Array as="points">
              <mxPoint x="1580" y="-3089" />
              <mxPoint x="1580" y="-2805" />
            </Array>
          </mxGeometry>
        </mxCell>
        <mxCell id="EDpNB0EzXoPj7TMAPCz_-71" value="&quot;itensor/util/str.h&quot;" style="swimlane;fontStyle=0;align=center;verticalAlign=top;childLayout=stackLayout;horizontal=1;startSize=26;horizontalStack=0;resizeParent=1;resizeLast=0;collapsible=1;marginBottom=0;rounded=0;shadow=0;strokeWidth=1;" vertex="1" parent="WIyWlLk6GJQsqaUBKTNV-1">
          <mxGeometry x="1280" y="-2755" width="200" height="60" as="geometry">
            <mxRectangle x="130" y="380" width="160" height="26" as="alternateBounds" />
          </mxGeometry>
        </mxCell>
        <mxCell id="EDpNB0EzXoPj7TMAPCz_-72" style="edgeStyle=orthogonalEdgeStyle;rounded=0;orthogonalLoop=1;jettySize=auto;html=1;exitX=-0.007;exitY=0.831;exitDx=0;exitDy=0;entryX=1;entryY=0.75;entryDx=0;entryDy=0;exitPerimeter=0;" edge="1" parent="WIyWlLk6GJQsqaUBKTNV-1" source="EDpNB0EzXoPj7TMAPCz_-4" target="EDpNB0EzXoPj7TMAPCz_-71">
          <mxGeometry relative="1" as="geometry">
            <Array as="points">
              <mxPoint x="1610" y="-3074" />
              <mxPoint x="1610" y="-2710" />
            </Array>
          </mxGeometry>
        </mxCell>
        <mxCell id="EDpNB0EzXoPj7TMAPCz_-73" value="&quot;itensor/util/str.h&quot;" style="swimlane;fontStyle=0;align=center;verticalAlign=top;childLayout=stackLayout;horizontal=1;startSize=26;horizontalStack=0;resizeParent=1;resizeLast=0;collapsible=1;marginBottom=0;rounded=0;shadow=0;strokeWidth=1;" vertex="1" parent="WIyWlLk6GJQsqaUBKTNV-1">
          <mxGeometry x="1340" y="-2612" width="200" height="60" as="geometry">
            <mxRectangle x="130" y="380" width="160" height="26" as="alternateBounds" />
          </mxGeometry>
        </mxCell>
        <mxCell id="EDpNB0EzXoPj7TMAPCz_-74" value="&quot;itensor/util/str.h&quot;" style="swimlane;fontStyle=0;align=center;verticalAlign=top;childLayout=stackLayout;horizontal=1;startSize=26;horizontalStack=0;resizeParent=1;resizeLast=0;collapsible=1;marginBottom=0;rounded=0;shadow=0;strokeWidth=1;" vertex="1" parent="WIyWlLk6GJQsqaUBKTNV-1">
          <mxGeometry x="1340" y="-2515" width="200" height="60" as="geometry">
            <mxRectangle x="130" y="380" width="160" height="26" as="alternateBounds" />
          </mxGeometry>
        </mxCell>
        <mxCell id="EDpNB0EzXoPj7TMAPCz_-75" value="&quot;itensor/util/str.h&quot;" style="swimlane;fontStyle=0;align=center;verticalAlign=top;childLayout=stackLayout;horizontal=1;startSize=26;horizontalStack=0;resizeParent=1;resizeLast=0;collapsible=1;marginBottom=0;rounded=0;shadow=0;strokeWidth=1;" vertex="1" parent="WIyWlLk6GJQsqaUBKTNV-1">
          <mxGeometry x="1340" y="-2420" width="200" height="60" as="geometry">
            <mxRectangle x="130" y="380" width="160" height="26" as="alternateBounds" />
          </mxGeometry>
        </mxCell>
        <mxCell id="EDpNB0EzXoPj7TMAPCz_-76" style="edgeStyle=orthogonalEdgeStyle;rounded=0;orthogonalLoop=1;jettySize=auto;html=1;entryX=1;entryY=0.75;entryDx=0;entryDy=0;" edge="1" parent="WIyWlLk6GJQsqaUBKTNV-1" target="EDpNB0EzXoPj7TMAPCz_-73">
          <mxGeometry relative="1" as="geometry">
            <mxPoint x="1716" y="-3000" as="sourcePoint" />
            <Array as="points">
              <mxPoint x="1650" y="-3000" />
              <mxPoint x="1650" y="-2567" />
            </Array>
          </mxGeometry>
        </mxCell>
        <mxCell id="EDpNB0EzXoPj7TMAPCz_-78" style="edgeStyle=orthogonalEdgeStyle;rounded=0;orthogonalLoop=1;jettySize=auto;html=1;exitX=0;exitY=0.5;exitDx=0;exitDy=0;entryX=1;entryY=0.75;entryDx=0;entryDy=0;" edge="1" parent="WIyWlLk6GJQsqaUBKTNV-1" source="EDpNB0EzXoPj7TMAPCz_-9" target="EDpNB0EzXoPj7TMAPCz_-74">
          <mxGeometry relative="1" as="geometry">
            <Array as="points">
              <mxPoint x="1680" y="-2987" />
              <mxPoint x="1680" y="-2470" />
            </Array>
          </mxGeometry>
        </mxCell>
        <mxCell id="EDpNB0EzXoPj7TMAPCz_-79" style="edgeStyle=orthogonalEdgeStyle;rounded=0;orthogonalLoop=1;jettySize=auto;html=1;exitX=0.002;exitY=0.762;exitDx=0;exitDy=0;entryX=1;entryY=0.75;entryDx=0;entryDy=0;exitPerimeter=0;" edge="1" parent="WIyWlLk6GJQsqaUBKTNV-1" source="EDpNB0EzXoPj7TMAPCz_-9" target="EDpNB0EzXoPj7TMAPCz_-75">
          <mxGeometry relative="1" as="geometry">
            <Array as="points">
              <mxPoint x="1700" y="-2973" />
              <mxPoint x="1700" y="-2375" />
            </Array>
          </mxGeometry>
        </mxCell>
      </root>
    </mxGraphModel>
  </diagram>
</mxfile>
